<svg width="961" height="452" fill="none" xmlns="http://www.w3.org/2000/svg"><g filter="url(#filter0_d)"><path fill-rule="evenodd" clip-rule="evenodd" d="M876.417 23.427l64.165-13.232 5.118 27.588-17.851 4.619 15.979 81.642-22.97 7.74-18.6-84.264-19.599 2.871-6.242-26.964zm9.237 89.382l5.993 24.967-54.304 11.235-25.591-112.102 53.804-8.863 5.618 25.591-30.21 5.867 3.495 15.48 19.599-2.996 5.243 23.219-19.349 2.871 4.244 18.975 31.458-4.244zm-84.637-73.528l-24.843 6.616 10.237 45.815-28.962-43.443-24.592 4.994 24.967 112.226 23.469-7.74-9.987-46.438 31.209 44.94 22.22-5.368-23.718-111.602zm-108.357 79.52l16.853-1.998-6.866-27.838-14.731 4.62 4.744 25.216zm30.585 54.053l-8.364-34.329-17.727 4.244 6.242 33.456-22.845 5.243-19.849-103.613 2.996-7.49 49.185-12.983 9.862 11.235 24.218 98.744-23.718 5.493zm-53.555 10.861l-6.741-26.465-32.582 6.242-17.726-83.89-24.842 3.246 24.842 112.601 57.049-11.734zm-111.477-66.787l-15.48 1.249 7.241 34.329 15.23-4.619-6.991-30.959zm19.849-22.844l15.479 67.285-3.245 7.865-35.079 8.614 5.618 25.965-23.345 7.366-25.591-112.102 60.42-9.363 5.743 4.37zm-91.005 127.081l-5.992-24.967-31.458 4.245-4.12-18.85 19.225-2.996-5.243-23.095-19.475 2.996-3.62-15.604 30.21-5.743-5.617-25.715-53.804 8.863L432.754 232.4l54.303-11.235zm-115.472-91.878l24.842-6.616 23.719 111.602-22.221 5.493-31.208-45.066 9.986 46.439-23.469 7.864-24.967-112.226 24.593-5.118 28.962 43.442-10.237-45.814zm-89.756 41.695l15.479 64.539 15.73-1.872-14.481-64.415-16.728 1.748zm29.711-30.834l6.99 5.992 20.723 94.874-1.998 10.861-51.182 10.985-8.738-3.87-23.219-99.243 1.997-7.74 55.427-11.859zm-32.083 183.257l19.599-1.997 16.978 75.649-18.476 2.247-18.101-75.899zm-30.085-22.346L247 310.172l27.214 116.596 10.361 4.619 60.171-12.858 2.247-12.733-24.468-111.478-8.239-7.115-64.914 13.856zm164.907-34.454l-29.212 7.74 11.984 53.928-33.955-51.182-28.961 5.992 29.336 131.951 27.588-9.113-11.734-54.678 36.701 52.93 26.091-6.367-27.838-131.201zm99.368 86.386l7.116 29.461-63.791 13.107-30.085-131.7 63.291-10.486 6.616 30.21-35.578 6.741 4.12 18.35 22.97-3.495 6.241 27.089-22.72 3.496 4.994 22.22 36.826-4.993zm72.529-92.003l18.101-1.623 8.364 36.951-17.851 5.368-8.614-40.696zm49.185 60.17l6.616-1.873 2.746-12.109-16.977-73.902-6.741-5.368-71.156 10.486 29.96 131.701 27.464-8.364-6.491-30.335 5.867-1.747 22.72 30.834 21.596-5.618.999-6.117-16.603-27.588zm3.995-99.743l28.462-7.116 27.339 129.329-26.84 8.489-28.961-130.702zm130.077 37.575l-35.952 7.116 5.867 25.716 9.363-.749 2.996 15.729-18.601 2.372-17.851-74.651 18.6-4.994 5.868 17.103 25.091-5.243-6.616-37.451-10.111-6.491-62.917 14.481-2.622 8.613 27.214 116.221 10.486 4.494 60.296-13.482 2.247-12.608-13.358-56.176zm48.062-75.525l29.336-4.993 28.088 131.076-28.587 4.869-11.236-51.182-19.099 3.12 10.985 51.557-28.462 7.615-29.211-131.95 29.96-6.242 10.611 49.934 18.725-3.121-11.11-50.683zm117.095-24.467l-75.4 15.479 7.365 31.833 23.219-3.495 21.846 98.994 26.84-8.989-18.726-95.997 20.973-5.493-6.117-32.332z" fill="#fff"/></g><path fill-rule="evenodd" clip-rule="evenodd" d="M24.03 71.754L32.25 64l12.407 10.079 2.464 9.762-15.274 6.952-7.817-19.04zm13.377 21.464l-15.12 18.563-14.174 14.084 4.026 27.09 35.225 45.55 15.094 35.231 20.56 4.655 16.813-24.544-23.908-28.131-12.72-36.901-7.469-54.218-17.333-2.085-.994.706zM96.23 139.4l-.237-15.66 11.441-1.294 10.24 17.946-15.32 7.071-6.124-8.063zm42.259 7.728l-24.358-.387-1.139.367-9.388 14.209 38.359 39.995 21.367 32.903 7.202 35.715 30.227 3.066L210 254.562l-18.432-33.507-13.946-55.275-18.938-20.246-20.195 1.594zm-21.087-24.649l7.176.852 2.713 15.144-8.202-1.827-1.687-14.169zm21.612 5.573l-6.901-3.657-.249 11.571 6.793 1.807.357-9.721zm6.432 1.611l5.637 2.584-.469 7.178-6.035.175.867-9.937zm10.087 12.006l5.583 2.005-.732-8.781-3.676-.391-1.175 7.167zM14.002 85.476l10.204 11.678 3.797-7.339L17.808 79.53l-3.806 5.946zm2.403 20.02l-7.93-6.022 1.438-7.467 9.443 7.197-2.95 6.292zm-12.382 5.908l5.994 4.118 4.003-4.328-8.526-5.571-1.471 5.781zm4.6 9.518l-1.958 5.584L0 120.17l2.022-2.921 6.6 3.673zm139.473 194.045l-14.52 1.965-.604.447-4.143 9.264 26.586 20.175 15.702 17.664L178.879 385l18.116-1.049 3.74-11.787-14.178-18.289-13.551-31.489-13.113-10.36-11.797 2.941zm-25.794-.51l-1.658-9.29 6.573-1.894 7.808 9.862-8.471 5.562-4.252-4.24zm10.777-12.086l4.444-.126 3.014 8.732-5.004-.242-2.454-8.364zm13.46 1.286l-4.477-1.555 1.036 6.95 4.204.471-.763-5.866zm3.914.307l3.556 1.037.39 4.33-3.522.644-.424-6.011zm7.209 6.244l3.577.63-1.464-5.184-2.163.087.05 4.467zm-97.814-35.682l-.483.497-6.656 12.695-6.672 9.911 5.63 15.639 26.108 22.906 13.037 19.087 12.589.428 6.949-16.604-17.429-13.799-11.806-20.388-10.896-31.129-10.37.757zm1.47-11.473l-8.383-4.541-3.951 5.605 6.91 10.328 8.08-6-2.656-5.392zm-15.15 6.277l-1.457 3.983 7.361 5.649 1.331-4.728-7.235-4.904zm-3.127 12.968l.045-4.695 6.321 3.28-.995 3.89-5.37-2.475zm-.918 3.881l-.197 3.662 3.96 1.759 1.824-3.134-5.587-2.287zm3.507 8.726l-.392 3.444-4.646-2.872.812-2.024 4.226 1.452z" fill="#fff"/><defs><filter id="filter0_d" x="232" y=".195" width="728.7" height="451.192" filterUnits="userSpaceOnUse" color-interpolation-filters="sRGB"><feFlood flood-opacity="0" result="BackgroundImageFix"/><feColorMatrix in="SourceAlpha" values="0 0 0 0 0 0 0 0 0 0 0 0 0 0 0 0 0 0 127 0"/><feOffset dy="5"/><feGaussianBlur stdDeviation="7.5"/><feColorMatrix values="0 0 0 0 0 0 0 0 0 0 0 0 0 0 0 0 0 0 0.15 0"/><feBlend in2="BackgroundImageFix" result="effect1_dropShadow"/><feBlend in="SourceGraphic" in2="effect1_dropShadow" result="shape"/></filter></defs></svg>