<svg width="337" height="353" fill="none" xmlns="http://www.w3.org/2000/svg"><path fill-rule="evenodd" clip-rule="evenodd" d="M118.612 4.348L114.032 0l-6.913 5.652-1.372 5.474 8.51 3.898 4.355-10.676zm-7.453 12.036l8.424 10.409 7.897 7.898-2.243 15.19-19.625 25.542-8.41 19.756-11.455 2.61-9.367-13.763L89.7 68.252l7.087-20.692 4.161-30.403 9.657-1.169.554.396zM78.386 42.28l.132-8.78-6.374-.726-5.705 10.063 8.536 3.965 3.411-4.522zm-23.544 4.334l13.57-.217.635.206 5.23 7.967-21.37 22.427-11.905 18.45-4.013 20.028-16.84 1.719L15 106.857l10.27-18.789 7.77-30.995L43.59 45.72l11.252.894zM66.59 32.792l-3.997.478-1.512 8.491 4.57-1.024.94-7.945zm-12.04 3.125l3.844-2.05.139 6.488-3.785 1.013-.199-5.451zm-3.584.904l-3.14 1.448.26 4.026 3.363.097-.483-5.572zm-5.62 6.732l-3.11 1.124.407-4.924 2.048-.22.655 4.02zm78.853-31.51l-5.685 6.548-2.116-4.115 5.681-5.767 2.12 3.334zm-1.339 11.226l4.418-3.377-.801-4.187-5.261 4.036 1.644 3.528zm6.899 3.313l-3.34 2.309-2.23-2.427 4.75-3.124.82 3.242zm-2.563 5.337l1.091 3.131L132 31.497l-1.127-1.638-3.677 2.06zm-77.707 108.81l8.09 1.102.337.25 2.308 5.195-14.812 11.314-8.749 9.905L32.34 180l-10.093-.588-2.084-6.61 7.9-10.255 7.55-17.657 7.305-5.81 6.572 1.649zm14.371-.286l.924-5.209-3.662-1.062-4.35 5.53 4.72 3.119 2.368-2.378zm-6.004-6.777l-2.476-.071-1.68 4.897 2.789-.136 1.367-4.69zm-7.5.721l2.495-.872-.577 3.897-2.342.264.425-3.289zm-2.18.172l-1.981.582-.217 2.428 1.962.361.236-3.371zm-4.016 3.502l-1.993.353.816-2.907 1.205.049-.028 2.505zm54.496-20.009l.27.279 3.708 7.119 3.717 5.557-3.137 8.77-14.546 12.844-7.263 10.703-7.014.24-3.872-9.311 9.71-7.738 6.578-11.432 6.071-17.456 5.778.425zm-.819-6.433l4.671-2.547 2.201 3.143-3.85 5.792-4.501-3.365 1.48-3.023zm8.441 3.52l.811 2.233-4.101 3.167-.741-2.651 4.031-2.749zm1.742 7.271l-.025-2.632-3.522 1.839.555 2.181 2.992-1.388zm.512 2.177l.109 2.053-2.206.986-1.016-1.757 3.113-1.282zm-1.955 4.893l.219 1.931 2.589-1.611-.453-1.135-2.355.815z" fill="#fff"/><g filter="url(#filter0_d)"><path fill-rule="evenodd" clip-rule="evenodd" d="M291.558 154.781L319.751 149 322 161.052l-7.844 2.018 7.021 35.666-10.092 3.381-8.173-36.811-8.612 1.254-2.742-11.779zm4.059 39.046l2.633 10.907-23.861 4.909-11.244-48.973 23.641-3.872 2.468 11.18-13.274 2.563 1.536 6.762 8.612-1.308 2.303 10.143-8.502 1.254 1.865 8.29 13.823-1.855zm-37.189-32.12l-10.915 2.89 4.497 20.014-12.725-18.978-10.806 2.181 10.97 49.027 10.312-3.381-4.388-20.287 13.713 19.633 9.764-2.345-10.422-48.754zm-47.611 34.738l7.405-.872-3.017-12.162-6.472 2.018 2.084 11.016zm13.439 23.614l-3.675-14.997-7.789 1.854 2.743 14.615-10.038 2.291-8.721-45.264 1.316-3.272 21.611-5.672 4.333 4.908 10.642 43.137-10.422 2.4zm-23.531 4.744l-2.962-11.561-14.316 2.727-7.789-36.648-10.915 1.418 10.915 49.19 25.067-5.126zm-48.982-29.176l-6.801.546 3.181 14.997 6.692-2.018-3.072-13.525zm8.721-9.98l6.802 29.394-1.426 3.436-15.413 3.763 2.468 11.343-10.257 3.218-11.245-48.972 26.548-4.09 2.523 1.908zm-39.986 55.517l-2.633-10.907-13.822 1.854-1.81-8.235 8.447-1.309-2.304-10.089-8.557 1.309-1.59-6.817 13.274-2.508-2.469-11.234-23.64 3.872 11.244 48.972 23.86-4.908zm-50.737-40.138l10.915-2.89 10.422 48.754-9.763 2.399-13.713-19.687 4.388 20.287-10.312 3.436-10.97-49.027 10.806-2.236 12.725 18.978-4.498-20.014zm-39.438 18.215l6.802 28.194 6.911-.818-6.363-28.14-7.35.764zm13.055-13.47l3.072 2.617 9.105 41.447-.878 4.744-22.489 4.799-3.84-1.69-10.201-43.355.877-3.382 24.354-5.18zM29.26 285.827l8.612-.872 7.46 33.048-8.118.982-7.954-33.158zm-13.219-9.761L15 280.047l11.957 50.935L31.51 333l26.438-5.617.987-5.563-10.75-48.699-3.62-3.109-28.523 6.054zM88.5 261.014l-12.835 3.381 5.266 23.559-14.92-22.359-12.725 2.618 12.89 57.643 12.122-3.981-5.156-23.886 16.126 23.122 11.464-2.781L88.5 261.014zm43.661 37.738l3.127 12.87-28.029 5.727-13.219-57.535 27.809-4.58 2.907 13.197-15.632 2.945 1.81 8.016 10.093-1.527 2.742 11.834-9.983 1.527 2.194 9.708 16.181-2.182zm31.869-40.192l7.953-.709 3.675 16.142-7.844 2.345-3.784-17.778zm21.611 26.286l2.907-.818 1.207-5.29-7.46-32.285-2.962-2.345-31.265 4.581 13.164 57.534 12.067-3.653-2.852-13.252 2.578-.764 9.983 13.47 9.489-2.454.439-2.672-7.295-12.052zm1.755-43.573l12.506-3.109 12.012 56.498-11.793 3.708-12.725-57.097zm57.155 16.415l-15.797 3.108 2.578 11.234 4.113-.327 1.317 6.871-8.173 1.037-7.844-32.612 8.173-2.182 2.578 7.472 11.025-2.291-2.907-16.36-4.443-2.836-27.645 6.326-1.152 3.763 11.958 50.772 4.607 1.963 26.493-5.89.988-5.508-5.869-24.54zm21.117-32.994l12.89-2.181 12.342 57.261-12.561 2.127-4.937-22.359-8.392 1.363 4.827 22.523-12.506 3.327-12.835-57.644 13.164-2.726 4.662 21.814 8.228-1.364-4.882-22.141zm51.45-10.689l-33.13 6.763 3.237 13.906 10.202-1.527 9.599 43.246 11.793-3.926-8.228-41.938 9.215-2.399-2.688-14.125z" fill="#fff"/></g><defs><filter id="filter0_d" x="0" y="139" width="337" height="214" filterUnits="userSpaceOnUse" color-interpolation-filters="sRGB"><feFlood flood-opacity="0" result="BackgroundImageFix"/><feColorMatrix in="SourceAlpha" values="0 0 0 0 0 0 0 0 0 0 0 0 0 0 0 0 0 0 127 0"/><feOffset dy="5"/><feGaussianBlur stdDeviation="7.5"/><feColorMatrix values="0 0 0 0 0 0 0 0 0 0 0 0 0 0 0 0 0 0 0.15 0"/><feBlend in2="BackgroundImageFix" result="effect1_dropShadow"/><feBlend in="SourceGraphic" in2="effect1_dropShadow" result="shape"/></filter></defs></svg>