<svg width="90" height="66" fill="none" xmlns="http://www.w3.org/2000/svg"><path fill-rule="evenodd" clip-rule="evenodd" d="M32.093 2.616C31.147 1.624 29.427.508 27.738.12c.568 2.882.395 5.222.016 6.663-.82 3.3-1.94 5.252-3.345 7.282-1.152 1.673-3.865 4.431-5.822 5.547 2.698.697 5.128.914 7.369.96 1.467.032 4.118-.154 5.459-.542 1.246-.356 2.966-.65 4.15-.496 1.514.403 3.203.806 4.702 1.147-.174-.108-2.73-1.797-3.44-2.278l-.001-.001c-.93-1.331-1.31-1.874-2.271-2.431-1.163-.676-2.503-.45-3.59-.265l-.102.017c.11-3.517 2.193-6.09 3.234-7.02.284-.247.395-.665.363-1.177-.079-1.363-1.057-3.517-2.367-4.911zM7.037 1.578c4.308-.295 9.593 1.843 11.645 3.3 2.303 1.642 4.717 5.066 5.822 7.87-1.483 2.434-3.598 4.51-5.333 5.796-1.562 1.162-9.862 5.5-10.051 5.314-.19-.17.615-.836 1.2-1.301.102-.083.226-.177.361-.28.805-.611 2.027-1.539 1.69-2.308-.237-.558-2.084-.867-3.993-.898-1.467-.031-3.913-.28-3.928-.636-.009-.199.945-.185 2.497-.162 1.347.02 3.145.046 5.155-.055 2.43-.123 6.043-1.471 5.98-3.517-.063-2.045-.773-4.028-2.65-6.275-2.573-3.068-6.091-5.454-8.395-6.848zM76.888 30.35c-11.913-4.06-23.999-6.91-43.5-5.624-7.906.527-17.673 2.99-19.156 3.548v.047c1.5-.419 7.369-1.534 10.635-1.658-8.489 1.503-17.577 4.121-20.591 5.175.079-.023.09-.023.103-.023.011 0 .023 0 .102-.024 5.538-1.766 24.394-5.95 34.192-5.345-20.888 1.956-27.91 4.21-34.233 6.241-.589.19-1.17.376-1.758.56l.048.156c12.78-3.502 31.746-6.539 44.936-5.795 12.795.71 23.037 3.122 28.02 4.296 1.538.362 2.575.606 3.032.647l-.246-.091a69.533 69.533 0 0 1-2.468-.948H76.211c.294-.003.626-.006 1.072.032l-.095-.035c-.345-.128-.681-.252-1.057-.337.068.007.184-.003.326-.016.154-.014.338-.03.526-.03a41.87 41.87 0 0 0-1.455-.439c-.763-.222-1.525-.443-1.67-.523l.043.007c.86.139 1.895.305 2.672.396a13.945 13.945 0 0 1-.852-.356c.192.028.35.043.51.059.193.019.39.038.657.08zM8.426 43.304H4.718v-5.532h3.645c1.72 0 2.777 1.054 2.777 2.727 0 1.674-1.09 2.805-2.714 2.805zm-3.692 8.723l-.016-6.322H8.71c1.909 0 3.187 1.27 3.187 3.177 0 1.936-1.23 3.145-3.187 3.145H4.734zM0 54.522h8.552c3.85 0 6.343-2.17 6.343-5.517 0-2.23-1.215-4.044-3.108-4.663 1.467-.775 2.335-2.293 2.335-4.122 0-3.006-2.257-4.942-5.728-4.942H0v2.494l1.373.016c.284.015.426.17.426.48v13.325c0 .34-.158.496-.505.496H0v2.433zm36.164-6.926c0-2.836 1.61-4.804 3.897-4.804 2.667 0 3.882 2.48 3.882 4.788 0 3.548-2.036 4.819-3.929 4.819-2.304 0-3.85-1.937-3.85-4.803zm-2.887.015c0 4.4 2.43 7.236 6.216 7.236 2.793 0 4.118-1.674 4.513-2.293-.016.124-.016.263-.016.434 0 1.022.615 1.549 1.799 1.549h2.65V52.12h-1.214c-.363 0-.52-.17-.52-.511V37.106c0-1.255-.569-1.813-1.847-1.813h-2.73v2.417h1.215c.363 0 .521.17.521.511v3.425c0 .263.016.48.032.65a4.237 4.237 0 0 0-.821-.852c-.631-.48-1.72-1.069-3.408-1.069-3.819 0-6.39 2.898-6.39 7.236zm-7.795 6.91h2.84v-5.686c0-.945.11-1.735.332-2.432.6-1.906 2.098-3.146 3.818-3.146.205 0 .505.031.505.031l.095.016.015-2.758h-.079c-.015-.016-.3-.031-.457-.031-1.894 0-3.519 1.208-4.323 3.191.015-.139.015-.294.015-.48v-.867c0-1.147-.6-1.674-1.877-1.674h-2.62v2.417h1.215c.363 0 .521.17.521.512v10.908zm34.713 0H53.33c-1.247 0-1.799-.542-1.799-1.766V38.221c0-.34-.157-.495-.505-.495h-1.246v-2.433h2.793c1.246 0 1.798.542 1.798 1.766v14.534c0 .325.174.496.505.496h3.992c.331 0 .505-.17.505-.496v-1.27h2.62v2.432c0 1.209-.553 1.767-1.8 1.767zm13.837 0h-2.777V43.274h-1.688V41.04h1.688v-.728c0-4.54 3.645-5.035 5.207-5.035.501 0 .875.057.98.073l.03.004.079.016v2.355l-.11-.016s-.269-.046-.648-.046c-1.246 0-2.745.465-2.745 2.696v.666h2.777v2.231h-2.777v11.265h-.016zm13.096-8.614h-6.974c.395-2.03 1.878-3.3 3.882-3.3 1.783 0 2.982 1.285 3.092 3.3zm-9.956 1.689c0 4.199 3.061 7.235 7.29 7.235 3.219 0 5.27-1.998 5.285-2.03l.048-.046-1.215-2.014-.079.077c-.016.016-1.625 1.565-3.897 1.565-2.13 0-4.355-1.363-4.56-4.385h9.861l.016-.077.01-.113c.022-.218.069-.697.069-.972 0-3.873-2.382-6.476-5.933-6.476-4.055 0-6.895 2.975-6.895 7.236zM2.762 59.618h-.884v6.167h.883v-6.167zm5.19 0h-.867v6.167h.883v-3.998c0-.34-.063-.898-.063-.898h.016s.284.557.52.898l2.793 3.998h.868v-6.167h-.884v4.013c0 .341.063.883.063.883h-.015s-.284-.557-.52-.883L7.951 59.62zm8.473.744H14.28v-.744h5.176v.744h-2.146v5.407h-.884v-5.407zm9.057-.744h-3.645v6.151h3.803v-.743h-2.92v-1.984h2.241V62.3h-2.24v-1.937h2.761v-.744zm5.286 2.96c.678 0 1.104-.434 1.104-1.116 0-.45-.173-.775-.505-.945-.173-.093-.378-.14-.867-.14h-.994v2.2h1.262zm-2.13-2.96h1.925c.662 0 .93.047 1.167.14.647.232 1.058.852 1.058 1.673 0 .79-.442 1.44-1.136 1.673v.016s.063.077.189.279l1.325 2.386h-.994l-1.325-2.448h-1.341v2.448h-.884v-6.167h.016zm8.615 0H36.4v6.167h.883v-3.998c0-.34-.063-.898-.063-.898h.016s.284.557.52.898l2.794 3.998h.852v-6.167h-.884v4.013c0 .341.063.883.063.883h-.016s-.284-.557-.52-.883l-2.793-4.013zm9.278.837s-.142.558-.253.867l-.694 1.953h1.909l-.694-1.953c-.11-.31-.237-.867-.237-.867h-.031zm1.167 3.548h-2.367l-.615 1.766h-.9l2.257-6.15h.93l2.257 6.166h-.915l-.647-1.782zm2.777-3.641h2.146v5.407h.884v-5.407h2.145v-.744h-5.175v.744zm8.441-.744h-.883v6.167h.883v-6.167zm8.08 3.037c0 1.379-.821 2.433-2.1 2.433-1.278 0-2.098-1.054-2.098-2.433 0-1.348.82-2.355 2.099-2.355 1.278 0 2.098 1.007 2.098 2.355zm.898 0c0-1.782-1.183-3.145-2.998-3.145-1.814 0-2.997 1.363-3.013 3.145 0 1.813 1.199 3.223 3.014 3.223 1.814 0 2.997-1.41 2.997-3.223zm2.777-3.037h.868l2.793 4.013c.237.326.52.883.52.883h.016s-.063-.542-.063-.883V59.62h.884v6.167h-.868l-2.793-3.998c-.236-.34-.52-.898-.52-.898h-.032s.063.557.063.898v3.998h-.883v-6.167h.015zm10.035 1.705c.111-.31.253-.868.253-.868h.031s.127.558.237.867l.694 1.953h-1.909l.695-1.953zm-.93 2.68h2.366l.647 1.766h.915l-2.256-6.166h-.93L78.26 65.77h.9l.615-1.766zm6.406-4.385h.883v5.408h2.809v.743h-3.692v-6.15zm-63.335-5.097h-2.682c-1.278 0-1.846-.558-1.846-1.813v-9.096c0-.34-.158-.51-.521-.51h-1.23v-2.418h2.697c1.279 0 1.846.558 1.846 1.813v9.095c0 .34.158.511.521.511h1.215v2.418zm-4.875-17.648c0 .945.788 1.72 1.751 1.72.963 0 1.736-.775 1.751-1.72 0-.946-.788-1.72-1.751-1.72-.962 0-1.751.774-1.751 1.72zm50.727 17.648h-2.698c-1.278 0-1.846-.558-1.846-1.813v-9.096c0-.34-.158-.51-.52-.51h-1.216v-2.418h2.698c1.278 0 1.846.558 1.846 1.813v9.095c0 .34.158.511.521.511H68.7v2.418zm-4.891-17.648c0 .945.789 1.72 1.751 1.72.963 0 1.752-.775 1.752-1.72 0-.946-.79-1.72-1.752-1.72s-1.751.774-1.751 1.72z" fill="#fff"/></svg>